<?xml version="1.0" encoding="UTF-8"?>
<svg xmlns="http://www.w3.org/2000/svg" width="24" height="24" viewBox="0 0 24 24">
  <path d="M23.2498 19.5C23.664 19.5 23.9998 19.8358 23.9998 20.25C23.9998 20.6494 23.6875 20.9759 23.2938 20.9987L23.2498 21H.75C.3358 21 0 20.6642 0 20.25C0 19.8506.3122 19.5241.7059 19.5013L23.2498 19.5ZM19.75 3C21.483 3 22.8992 4.3565 22.9949 6.0656L23 6.25V15.75C23 17.483 21.6435 18.8992 19.9344 18.9949L19.75 19H4.25C2.517 19 1.1008 17.6435 1.0051 15.9344L1 15.75V6.25C1 4.517 2.3565 3.1008 4.0656 3.0051L4.25 3H19.75ZM19.75 4.5H4.25C3.3318 4.5 2.5788 5.2071 2.5058 6.1065L2.5 6.25V15.75C2.5 16.6682 3.2071 17.4212 4.1065 17.4942L4.25 17.5H19.75C20.6682 17.5 21.4212 16.7929 21.4942 15.8935L21.5 15.75V6.25C21.5 5.3318 20.7929 4.5788 19.8935 4.5058L19.75 4.5Z" fill="#000000"/>
</svg>
